<svg width="701" height="860" viewBox="0 0 701 860" fill="none" xmlns="http://www.w3.org/2000/svg">
<path fill-rule="evenodd" clip-rule="evenodd" d="M366.741 2.62089C366.32 3.86802 365.718 19.0675 365.402 36.3968C365.086 53.7242 364.325 68.4053 363.708 69.0172C362.474 70.2448 338.65 73.1795 266.237 81.0287C239.929 83.8795 217.81 86.7694 217.082 87.4475C215.526 88.8973 219.61 129.022 224.151 156.884C230.914 198.394 243.68 247.921 256.706 283.191C259.8 291.57 262.332 298.765 262.332 299.18C262.332 299.593 259.363 300.489 255.731 301.169C250.159 302.212 247.344 301.197 237.673 294.667C211.986 277.318 191.424 270.88 161.71 270.88C129.429 270.88 87.9559 284.199 75.9687 298.418C62.1679 314.79 65.8461 371.492 82.7648 403.177L88.7623 414.407L81.1151 430.19C76.9098 438.869 71.8846 451.816 69.9459 458.961C66.4923 471.698 66.1605 472.126 53.1073 480.71C19.7248 502.662 -0.969708 538.988 1.14854 571.922C3.20042 603.839 26.8253 626.196 67.3356 634.558L83.696 637.935L90.5291 652.626C100.523 674.112 110.409 688.461 127.459 706.231C146.816 726.408 151.369 737.246 151.316 763.029C151.295 773.846 150.11 784.058 148.265 789.347C141.461 808.855 146.387 823.152 162.764 831.426C175.285 837.753 192.141 839.854 230.506 839.87C263.63 839.885 264.154 839.951 269.364 844.77C272.269 847.458 278.884 850.911 284.063 852.446C299.746 857.096 339.116 859.995 368.733 858.684C416.615 856.562 434.172 851.758 441.122 838.876L444.785 832.091H466.998C488.312 832.091 489.368 832.288 493.017 836.916C499.207 844.771 509.875 846.709 545.417 846.435C593.248 846.064 613.078 840.725 620.61 826.188C622.722 822.112 623.521 813.822 623.556 795.651C623.618 761.386 627.976 741.745 637.962 730.714C673.875 691.036 695.163 624.674 698.891 540.768C701.814 475.003 688.788 429.373 655.203 387.732C633.048 360.262 596.864 334.659 560.059 320.408C552.543 317.499 545.717 314.529 544.889 313.81C544.064 313.091 548.972 305.55 555.797 297.05C575.74 272.216 600.606 235.81 617.291 207.021C633.587 178.9 646.937 153.355 646.937 150.295C646.937 148.162 518.621 81.2118 514.531 81.2118C512.311 81.2118 511.991 79.0138 512.952 70.3306C513.614 64.3463 514.728 48.8487 515.429 35.8901L516.704 12.329L500.311 11.0644C491.295 10.3687 461.077 8.05176 433.159 5.91409C405.241 3.77837 379.047 1.65435 374.951 1.19252C370.345 0.674179 367.214 1.21981 366.741 2.62089ZM441.944 12.6681C475.768 15.3202 505.1 17.5047 507.126 17.5222C510.574 17.5534 510.726 18.7771 509.496 36.5547C506.831 75.0463 502.12 105.554 497.253 115.824L492.572 125.705L493.649 117.911C497.981 86.5804 502.552 40.6468 502.07 33.2692L501.49 24.3756L444.873 19.1513C413.734 16.279 386.278 13.8665 383.863 13.7925C379.615 13.6619 379.471 14.2524 379.459 31.683C379.447 51.0273 374.453 111.546 371.941 122.782C369.11 135.447 367.481 104.525 369.633 78.9378C370.714 66.0767 371.612 44.813 371.63 31.683C371.661 8.23104 371.737 7.81208 376.054 7.82961C378.469 7.83936 408.121 10.016 441.944 12.6681ZM436.087 22.6238C455.952 24.1691 474.975 25.878 478.361 26.4198L484.514 27.4038L483.614 39.5303C481.289 70.8762 473.105 133.566 470.276 141.71C469.736 143.263 466.022 141.768 459.455 137.356C446.913 128.932 432.966 124.731 417.541 124.731C404.89 124.731 387.44 128.938 379.765 133.837C375.293 136.694 375.207 136.629 376.257 131.236C376.849 128.194 378.317 117.375 379.517 107.193C380.72 97.0115 382.069 86.4888 382.516 83.8094C382.965 81.13 383.912 65.6558 384.623 49.4216L385.917 19.9073L392.943 19.8586C396.807 19.8333 416.223 21.0785 436.087 22.6238ZM495.977 48.2466C494.284 74.5436 485.506 133.728 481.832 143.623C479.804 149.087 477.904 151.455 476.1 150.765C474.218 150.044 473.884 148.458 474.997 145.513C476.401 141.791 481.272 109.617 486.928 66.6789C487.958 58.8648 488.8 47.2469 488.8 40.8593C488.8 30.2742 489.171 29.2472 492.999 29.2472C497.093 29.2472 497.167 29.7227 495.977 48.2466ZM422.24 49.3787C415.551 52.9097 412.802 55.9281 409.889 62.9452C406.588 70.8938 406.438 72.9574 408.621 80.2297C415.063 101.694 441.456 111.344 458.383 98.4223C476.043 84.9416 471.276 56.5828 449.914 48.0497C438.996 43.6906 432.417 44.0063 422.24 49.3787ZM449.785 52.3426C470.813 63.4947 470.323 90.3139 448.943 98.4651C440.476 101.692 439.52 101.696 431.261 98.549C414.528 92.171 406.969 76.6247 414.013 63.0758C420.824 49.975 436.468 45.2787 449.785 52.3426ZM361.669 100.654C362.21 133.282 369.631 185.49 379.424 225.554C382.501 238.148 384.83 248.642 384.597 248.874C384.365 249.105 378.576 248.671 371.732 247.909C357.681 246.342 354.315 242.728 363.827 239.419C369.227 237.54 369.848 236.619 368.725 232.154L368.645 231.836C367.839 228.629 367.454 227.097 366.537 226.646C365.699 226.234 364.416 226.725 361.96 227.666L361.695 227.768C357.814 229.255 355.961 228.553 350.785 223.637C346.065 219.153 342.215 217.491 334.93 216.793C329.642 216.286 324.812 216.682 324.197 217.674C323.584 218.664 324.004 223.103 325.13 227.534C327.016 234.952 327.746 235.64 334.29 236.186C340.415 236.697 341.401 237.455 341.401 241.65C341.401 245.573 340.303 246.646 335.762 247.165C331.106 247.695 328.303 245.943 319.638 237.084C308.114 225.305 301.14 222.602 290.935 225.963C281.765 228.984 275.864 235.993 274.604 245.356C274.015 249.749 272.549 253.356 271.348 253.371C265.967 253.445 264.107 256.522 266.17 261.937C267.877 266.417 269.081 267.123 273.568 266.273C277.927 265.449 279.96 266.505 284.458 271.932C288.897 277.289 289.735 279.767 288.696 284.487C287.124 291.629 285.768 291.761 278.306 285.495C273.224 281.225 268.189 279.167 268.189 281.36C268.189 281.765 269.507 285.243 271.118 289.092C274.716 297.685 274.725 298.161 271.303 298.161C265.778 298.161 245.076 231.422 235.037 181.242C229.262 152.378 223.286 110.171 223.286 98.2449C223.286 92.6874 224.002 91.5864 227.679 91.5007C230.096 91.4442 260.624 88.1393 295.521 84.1562L358.971 76.917L360.205 81.8257C360.883 84.5245 361.543 92.9973 361.669 100.654ZM340.424 84.8695C338.814 85.2495 313.555 88.3829 284.296 91.834L231.095 98.1067V105.587C231.095 122.673 244.228 201.814 250.603 223.138C251.565 226.353 253.312 232.712 254.488 237.266C255.663 241.82 257.264 245.547 258.045 245.547C258.826 245.547 261.005 241.213 262.891 235.919C270.544 214.412 293.395 200.247 320.901 199.966C338.089 199.791 347.166 202.552 358.985 211.557C363.729 215.172 367.975 217.502 368.418 216.736C368.864 215.971 367.181 204.382 364.68 190.985C360.363 167.853 354.661 118.69 353.603 95.5013C353.152 85.5905 352.747 84.7603 348.234 84.4817C345.549 84.316 342.035 84.4914 340.424 84.8695ZM348.304 99.8858C348.409 115.068 349.932 129.835 355.201 166.748C355.55 169.192 355.878 171.482 356.186 173.628C359.458 196.469 360.375 202.868 358.894 203.482C358.318 203.721 357.378 203.083 356.074 202.198C355.759 201.984 355.424 201.757 355.067 201.523C352.382 199.768 350.186 198.791 350.186 199.353C350.186 199.916 345.575 199.15 339.936 197.651C319.287 192.166 297.679 196.02 279.452 208.443C273.3 212.637 267.832 215.367 267.301 214.511C263.146 207.802 247.454 103.649 250.206 101.059C251.983 99.3849 324.431 90.1503 337.984 89.8677L348.234 89.6553L348.304 99.8858ZM579.096 120.156C611.576 136.932 638.571 151.016 639.086 151.455C640.203 152.41 630.867 170.756 615.005 198.774C595.989 232.361 567.234 274.021 544.308 301.199L535.991 311.057L514.43 305.766C502.571 302.855 484.878 299.385 475.11 298.052L457.348 295.629L451.333 286.901C443.93 276.162 440.008 263.656 439.945 250.596L439.896 240.676L430.984 250.906C423.034 260.03 416.564 263.923 416.564 259.585C416.564 258.732 421.968 251.058 428.573 242.535C456.926 205.937 494.292 142.01 511.952 99.8858C514.311 94.26 517.095 89.6553 518.139 89.6553C519.185 89.6553 546.615 103.382 579.096 120.156ZM518.012 103.783C509.442 125.501 481.752 177.586 465.044 203.41C460.97 209.708 458.078 215.573 458.619 216.446C459.158 217.317 462.869 216.668 466.864 215.002C477.088 210.739 500.449 212.344 512.649 218.149C534.82 228.699 549.552 249.219 549.737 269.806C549.792 275.804 550.491 281.114 551.293 281.609C553.095 282.722 581.786 241.648 597.578 215.343C613.138 189.432 629.678 157.821 628.901 155.49C628.556 154.46 623.907 151.225 618.571 148.302C597.612 136.826 522.458 97.4499 521.513 97.4499C520.962 97.4499 519.387 100.299 518.012 103.783ZM244.761 109.75C244.761 119.733 254.248 182.253 258.515 200.395C262.711 218.237 263.127 223.74 260.579 227.756C258.543 230.964 256.711 225.562 250.765 198.78C245.89 176.832 236.952 119.322 236.952 109.91C236.952 104.596 237.719 103.296 240.857 103.296C243.975 103.296 244.761 104.596 244.761 109.75ZM531.171 107.589C535.77 109.563 609.595 147.848 611.434 149.212C613.993 151.11 555.881 251.393 552.222 251.393C551.904 251.393 549.413 247.593 546.686 242.948C535.505 223.905 515.281 211.477 490.405 208.363C481.686 207.272 473.345 206.843 471.869 207.408C468.605 208.657 469.265 207.338 482.837 185.498C488.261 176.77 499.826 155.142 508.538 137.436C517.247 119.731 524.675 105.245 525.042 105.245C525.409 105.245 528.168 106.299 531.171 107.589ZM285.762 119.125C268.578 125.964 260.901 147.807 270.331 163.034C275.561 171.481 283.228 175.396 294.545 175.396C304.963 175.396 311.792 172.288 319.761 163.92C327.91 155.366 329.242 139.321 322.608 129.616C315.253 118.858 298.452 114.074 285.762 119.125ZM308.159 122.763C317.374 126.259 322.854 134.1 322.854 143.785C322.854 159.462 311.136 171.635 295.84 171.845C280.409 172.058 270.141 161.864 270.141 146.33C270.141 140.31 271.578 136.873 276.379 131.415C279.811 127.516 284.422 123.595 286.629 122.703C292.216 120.444 302.122 120.471 308.159 122.763ZM439.246 131.881C451.081 135.604 465.993 146.347 471.331 154.995C474.96 160.876 474.954 160.935 469.827 169.515L464.681 178.13L462.586 169.456C460.759 161.888 459.357 160.218 451.593 156.371C438.352 149.808 432.032 151.804 417.369 167.177C407.898 177.105 404.562 179.465 401.399 178.463C396.83 177.015 394.695 172.845 396.335 168.576C397.428 165.731 400.538 164.778 407.068 165.282C409.265 165.452 410.909 162.995 412.324 157.425C413.458 152.971 413.944 148.614 413.408 147.745C412.869 146.877 408.441 146.166 403.564 146.166C396.057 146.166 393.666 147.197 387.953 152.899C382.21 158.632 380.501 159.36 376.435 157.817C369.067 155.021 370.164 147.768 378.967 141.067C394.591 129.172 418.876 125.472 439.246 131.881ZM533.504 150.623C511.981 165.084 521.011 201.155 547.262 205.582C568.304 209.131 585.697 190.763 580.361 170.631C574.873 149.925 550.213 139.395 533.504 150.623ZM563.309 153.474C575.211 160.465 581.101 180.032 574.487 190.605C571.146 195.944 558.813 202.677 552.375 202.677C528.74 202.677 516.081 170.035 533.91 155.06C541.135 148.992 554.456 148.273 563.309 153.474ZM407.369 155.909C406.719 158.388 404.706 159.807 401.834 159.807C395.411 159.807 391.184 164.862 391.184 172.543C391.184 184.849 406.932 187.587 416.061 176.869C431.902 158.273 437.302 155.451 448.738 159.791C465.612 166.194 458.73 198.922 439.504 203.71C434.676 204.914 434.135 204.536 434.135 199.964C434.135 195.611 434.979 194.882 440.021 194.882C444.566 194.882 446.788 193.44 449.775 188.549C454.711 180.47 454.648 177.674 449.414 172.11C441.679 163.895 434.945 165.908 421.275 180.525C409.46 193.158 409.019 193.417 401.651 192.084C391.241 190.198 385.732 184.149 385.044 173.851C384.275 162.319 392.194 152.012 401.822 152.012C407.428 152.012 408.24 152.583 407.369 155.909ZM620.36 155.12C622.966 156.118 622.712 157.607 618.535 165.838C615.866 171.095 612.765 175.396 611.647 175.396C610.528 175.396 610.095 176.175 610.686 177.13C612.703 180.386 563.243 262.237 556.892 266.156C553.228 268.417 555.42 256.31 559.709 250.602C571.41 235.03 596.198 193.208 610.35 165.165C613.46 159.002 616.303 153.961 616.668 153.961C617.033 153.961 618.695 154.483 620.36 155.12ZM380.16 178.919C381.571 187.727 388.268 194.643 397.34 196.663C407.888 199.012 414.782 195.857 426.461 183.337C435.269 173.892 438.173 171.898 441.757 172.833C447.385 174.303 448.9 178.256 446.148 184.289C444.541 187.807 442.44 189.036 438.034 189.036C431.951 189.036 430.217 191.369 427.107 203.737C425.959 208.301 426.32 208.523 434.901 208.523C439.848 208.523 443.897 208.981 443.897 209.538C443.897 210.097 441.583 214.043 438.756 218.307C433.965 225.535 432.987 226.061 424.36 226.061C413.458 226.061 401.563 222.195 390.003 214.895C381.843 209.743 381.612 209.3 378.616 193.004C375.088 173.818 374.943 171.499 377.268 171.499C378.205 171.499 379.506 174.839 380.16 178.919ZM396.592 223.301C402.457 226.072 411.986 228.826 417.767 229.42C423.548 230.017 428.278 230.903 428.278 231.392C428.278 231.879 426.42 234.884 424.149 238.068C420.034 243.836 420.004 243.842 415.852 240.074C409.251 234.083 403.751 231.907 395.218 231.907C390.852 231.907 387.28 231.683 387.28 231.406C387.28 231.131 386.462 228.062 385.464 224.586C384.465 221.111 384.16 218.266 384.787 218.266C385.413 218.266 390.726 220.532 396.592 223.301ZM345.846 225.198C348.234 226.866 350.186 229.496 350.186 231.043C350.186 233.811 352.216 234.59 357.995 234.039C360.205 233.826 360.086 234.272 357.507 235.853C355.629 237.004 354.091 239.656 354.091 241.747C354.091 243.836 352.773 245.547 351.162 245.547C349.536 245.547 348.234 243.815 348.234 241.65C348.234 236.334 341.438 229.958 335.772 229.958C332.76 229.958 330.759 228.582 330.097 226.061C329.234 222.766 330.038 222.163 335.292 222.163C338.71 222.163 343.46 223.529 345.846 225.198ZM451.928 230.326C449.57 234.095 449.712 234.956 453.162 237.743C456.407 240.366 456.903 242.55 456.114 250.746C455.023 262.076 458.574 269.286 467.518 273.902C475.864 278.211 484.224 277.316 497.212 270.73C506.919 265.805 509.844 265.1 513.559 266.789C519.156 269.334 519.383 274.948 514.082 279.736C510.726 282.768 509.152 283.002 504.344 281.192C499.12 279.224 498.171 279.549 493.704 284.848C487.513 292.192 487.527 295.008 493.772 297.847C501.101 301.181 512.395 300.583 519.06 296.508C524.283 293.314 525.392 293.235 529.306 295.766C533.324 298.363 534.017 298.215 537.537 293.999C541.366 289.411 541.364 289.378 537.428 286.064C534.074 283.24 533.754 281.726 535.315 276.075C537.996 266.386 536.077 259.961 528.527 253.344C519.388 245.335 508.926 245.387 493.659 253.519C484.274 258.517 481.568 259.188 477.765 257.459C472.543 255.084 471.75 249.158 476.168 245.499C478.548 243.526 480.223 243.511 484.423 245.423C489.235 247.611 490.077 247.34 494.147 242.299C499.541 235.613 499.139 231.833 492.687 228.575C486.145 225.27 477.326 225.453 470.446 229.032C465.39 231.665 464.435 231.663 461.508 229.021C457.077 225.018 455.08 225.289 451.928 230.326ZM305.9 232.144C308.244 233.347 312.567 237.067 315.505 240.411C320.216 245.769 320.452 246.629 317.499 247.662C315.341 248.418 312.87 247.211 310.55 244.267C307.967 240.989 304.97 239.701 299.926 239.701C286.875 239.701 281.787 250.093 289.526 260.944C295.232 268.943 291.449 273.13 285.623 265.266C283.146 261.922 279.309 259.086 277.095 258.962C273.802 258.777 273.691 258.574 276.486 257.845C278.89 257.218 279.903 255.002 279.903 250.368C279.903 241.155 283.485 234.317 289.457 232.129C296.449 229.568 300.884 229.572 305.9 232.144ZM490.161 233.45C494.903 236.459 489.339 240.568 481.307 239.99C475.108 239.542 472.974 240.311 470.458 243.899C466.444 249.618 466.477 255.024 470.555 259.521C475.286 264.739 485.057 263.935 498.257 257.239C512.731 249.897 516.273 249.924 524.849 257.442C532.612 264.243 533.781 271.016 528.498 278.546C525.405 282.953 525.452 283.349 529.474 286.599C535.171 291.204 534.859 293.161 529.035 289.351C524.662 286.492 523.902 286.613 517.048 291.255C508.907 296.771 506.995 297.093 499.452 294.23C495.09 292.576 494.633 291.769 496.668 289.322C498.384 287.258 501.023 286.753 505.609 287.613C511.132 288.646 513.026 287.921 518.159 282.796C526.143 274.828 525.526 267.686 516.398 262.384L509.83 258.57L496.89 264.94C479.971 273.267 476.93 273.651 469.195 268.432C461.343 263.136 459.197 256.292 462.438 246.886C464.656 240.448 464.507 239.582 460.726 236.864C456.798 234.039 456.864 234.003 462.028 236.164C466.565 238.064 468.014 237.901 470.743 235.175C474.107 231.819 485.934 230.767 490.161 233.45ZM410.557 240.849C417.72 246.865 417.792 247.49 411.797 251.839C405.098 256.699 395.618 253.133 391.95 244.372C391.88 244.205 391.811 244.041 391.744 243.881C390.008 239.738 389.162 237.72 389.833 236.736C390.471 235.802 392.48 235.802 396.398 235.804L396.891 235.804C402.283 235.804 406.328 237.297 410.557 240.849ZM304.695 246.525L308.881 249.45L302.964 255.357C298.296 260.016 296.476 260.788 294.332 259.012C289.231 254.786 292.189 243.599 298.405 243.599C299.562 243.599 302.393 244.916 304.695 246.525ZM393.244 258.741C413.655 264.884 427.876 272.784 437.239 283.18C448.157 295.296 461.616 322.073 469.581 347.52C472.994 358.419 476.092 367.718 476.469 368.182C476.844 368.647 478.119 368.061 479.302 366.88C481.978 364.208 474.077 335.522 465.407 316.437C462.166 309.303 459.515 303.14 459.515 302.74C459.515 301.701 472.927 303.699 496.609 308.266C536.227 315.905 573.399 330.329 602.5 349.352C623.446 363.043 633.667 371.728 647.454 387.549C681.629 426.764 696.068 475.129 692.906 539.793C688.439 631.103 665.111 695.599 621.295 737.786C613.386 745.399 601.864 754.472 595.689 757.944C589.513 761.419 584.463 765.55 584.463 767.129C584.463 772.252 598.379 765.893 614.552 753.381L622.187 747.472L620.988 752.27C618.3 763.034 617.353 773.881 617.023 797.664L616.676 822.673L610.434 828.236C602.629 835.195 594.917 837.342 567.868 840.092C533.127 843.625 496.609 839.398 496.609 831.845C496.609 830.53 493.148 822.314 488.917 813.588C481.678 798.663 471.331 786.566 460.362 780.212C456.704 778.092 456.698 777.901 460.144 774.056C462.102 771.875 466.274 769.026 469.417 767.727C472.562 766.427 475.134 764.155 475.134 762.678C475.134 754.758 455.749 766.454 448.551 778.715C444.966 784.818 443.151 791.847 441.716 805.174C439.219 828.349 436.328 837.662 430.23 842.152C413.581 854.41 317.469 857 285.004 846.064C269.727 840.916 267.658 836.627 266.022 806.715C264.37 776.533 261.541 769.27 248.633 762.083C238.028 756.179 209.62 753.558 209.62 758.482C209.62 760.657 213.05 761.661 223.466 762.532C231.08 763.169 240.523 765.326 244.453 767.323C255.351 772.863 258.105 780.459 259.646 809.231L260.975 834.039H233.782C203.253 834.039 178.061 831.438 168.012 827.246C154.135 821.459 148.124 808.849 153.061 795.887C157.3 784.76 159.172 762.019 157.001 748.053C154.042 729.005 148.296 718.165 133.128 703.01C118.145 688.037 107.86 673.646 97.6023 653.302L90.4803 639.174H129.14C171.245 639.174 183.199 637.319 200.04 628.17C212.084 621.627 224.865 609.011 229.276 599.313C235.084 586.541 229.691 583.772 223.313 596.251C217.646 607.339 207.392 616.831 193.439 623.911C183.586 628.911 178.383 630.213 165.693 630.852L150.074 631.639L161.788 625.571C201.024 605.241 210.645 566.942 187.483 523.29C181.536 512.082 162.218 490.506 150.074 481.509L144.218 477.171L150.074 478.376C171.22 482.727 187.408 488.343 194.464 493.78C203.421 500.678 215.588 519.74 221.677 536.41C225.968 548.153 227.831 550.575 231.046 548.591C232.19 547.886 231.015 542.286 228.098 534.551C217.763 507.144 204.118 489.723 187.168 482.291C161.765 471.152 101.31 462.621 83.0107 467.59C78.3389 468.861 74.1414 469.523 73.6826 469.065C72.4234 467.808 82.4114 441.02 89.0883 427.746C109.617 386.928 146.504 351.663 191.046 330.275C219.112 316.796 244.412 309.054 279.639 303.165L286.209 302.066L284.891 312.589L283.575 323.109L298.161 330.113C316.155 338.751 339.159 359.744 357.517 384.281C364.613 393.767 371.357 401.219 372.505 400.845C375.966 399.709 375.986 382.757 372.546 365.789C365.551 331.272 346.266 283.318 331.742 264.328C327.928 259.338 324.806 254.716 324.806 254.053C324.806 253.392 337.326 253.309 352.626 253.87C372.247 254.589 384.218 256.025 393.244 258.741ZM325.583 268.931C341.522 290.949 361.484 342.777 366.843 376.056L368.247 384.772L356.574 370.21C343.97 354.486 332.512 343.249 319.503 333.854C314.976 330.584 311.901 327.281 312.67 326.514C313.44 325.746 313.19 325.391 312.116 325.726C309.742 326.469 294.25 320.375 293.022 318.216C291.199 315.015 295.631 286.325 299.57 275.814C304.943 261.481 310.05 256.541 316.173 259.759C318.633 261.053 322.869 265.18 325.583 268.931ZM434.241 265.585C433.467 266.423 431.334 266.534 429.497 265.831C426.361 264.63 426.365 264.322 429.588 260.768C432.862 257.157 433.079 257.148 434.33 260.523C435.053 262.467 435.012 264.745 434.241 265.585ZM200.565 282.64C214.34 287.289 237.216 299.926 238.43 303.559C238.805 304.681 236.21 306.23 232.663 307.002C229.116 307.772 219.725 310.889 211.795 313.931L197.373 319.46L177.629 310.94C153.93 300.715 128.613 292.609 113.957 290.557L103.219 289.055L109.076 286.611C135.518 275.584 174.632 273.886 200.565 282.64ZM120.144 299.266C143.634 305.067 184.24 320.36 184.24 323.404C184.24 324.226 178.92 327.73 172.417 331.188C146.363 345.049 110.136 377.592 97.5066 398.475C94.1291 404.064 92.743 405.056 91.1284 403.039C87.3624 398.341 82.4153 387.454 83.5359 386.335C84.1411 385.729 83.6413 384.036 82.425 382.572C81.2068 381.107 80.7676 379.353 81.4489 378.675C82.1283 377.995 81.9175 376.483 80.9784 375.312C75.2718 368.199 73.0169 325.976 77.5365 310.827C81.6558 297.013 95.6519 293.215 120.144 299.266ZM586.415 364.156C586.415 365.085 590.125 368.295 594.656 371.29C606.391 379.039 631.097 404.257 640.426 418.003C655.958 440.892 666.938 466.89 672.522 494C675.167 506.834 675.87 549.199 673.586 558.009C672.516 562.136 672.793 563.343 674.669 562.719C681.512 560.443 681.295 509.515 674.324 482.308C662.639 436.704 640.037 401.897 602.732 372.057C591.231 362.858 586.415 360.525 586.415 364.156ZM453.902 386.778C437.882 396.967 422.294 401.566 399.482 402.834C388.402 403.45 379.471 404.804 379.471 405.866C379.471 409.429 420.285 406.159 433.413 401.546C446.977 396.78 465.69 386.094 466.866 382.44C468.096 378.621 465.208 379.587 453.902 386.778ZM128.312 477.834C152.454 487.996 171.724 506.442 183.882 531.024C194.808 553.116 196.436 576.184 188.205 592.29C186.204 596.201 180.476 603.167 175.472 607.772C158.456 623.427 133.277 631.312 100.291 631.312C57.4551 631.312 24.8184 616.632 12.0308 591.612C-7.55087 553.299 30.437 488.672 80.8144 474.595C94.5176 470.766 114.81 472.15 128.312 477.834ZM73.9618 488.224C49.2495 498.248 32.1181 514.515 21.1969 538.326C15.4688 550.817 12.8175 563.177 15.869 563.177C16.9642 563.177 18.3953 560.328 19.0532 556.844C23.2917 534.345 44.8686 507.317 67.6852 495.923C75.1684 492.186 82.4407 489.128 83.8425 489.128C85.2462 489.128 86.8997 488.312 87.5167 487.314C89.9278 483.421 84.9845 483.752 73.9618 488.224ZM43.7421 545.511C40.7238 551.142 41.3037 562.481 44.7886 565.962C51.9301 573.09 60.1804 567.419 60.1804 555.382C60.1804 551.366 58.9935 546.654 57.5449 544.91C53.9429 540.58 46.2059 540.918 43.7421 545.511ZM96.181 544.91C94.7324 546.654 93.5454 551.366 93.5454 555.382C93.5454 563.573 97.0596 569.023 102.343 569.023C108.074 569.023 112.004 563.473 112.004 555.382C112.004 543.63 102.485 537.33 96.181 544.91ZM105.242 653.302C108.975 665.791 126.268 689.175 140.198 700.567C153.989 711.847 153.128 707.075 138.888 693.317C126.696 681.536 113.992 664.133 110.07 653.834C107.715 647.655 103.412 647.181 105.242 653.302ZM164.717 681.68C164.717 684.878 175.989 694.076 177.305 691.951C178.022 690.794 176.142 687.68 173.127 685.032C167.444 680.043 164.717 678.956 164.717 681.68ZM138.724 683.305C138.05 683.978 139.247 686.977 141.381 689.97C146.443 697.063 162.823 707.361 160.486 701.981C159.03 698.624 139.86 682.173 138.724 683.305ZM158.333 692.18C162.844 696.683 167.165 699.738 167.932 698.97C169.83 697.078 156.904 683.993 153.138 683.993C151.256 683.993 153.202 687.057 158.333 692.18ZM282.3 770.094C285.118 778.536 426.326 781.593 426.326 773.214C426.326 771.856 421.121 771.632 410.69 772.54C375.507 775.603 319.418 773.808 287.995 768.615C283.113 767.807 281.664 768.185 282.3 770.094ZM544.44 770.085C539.072 771.098 523.479 772.09 509.789 772.29C494.204 772.52 485.149 773.386 485.569 774.605C487.257 779.506 564.94 774.566 564.94 769.558C564.94 767.417 557.587 767.606 544.44 770.085ZM465.891 793.123C474.528 800.711 483.003 812.972 485.754 821.86C487.101 826.215 486.972 826.245 466.553 826.245H445.995L447.095 813.091C448.555 795.624 451.276 785.323 454.435 785.323C455.853 785.323 461.009 788.833 465.891 793.123Z" fill="#D59ACF"/>
<path d="M368.725 232.154C369.848 236.619 369.227 237.54 363.827 239.419C354.315 242.728 357.681 246.342 371.732 247.909C378.576 248.671 384.365 249.105 384.597 248.874C384.83 248.642 382.501 238.148 379.424 225.554C369.631 185.49 362.21 133.282 361.669 100.654C361.543 92.9973 360.883 84.5245 360.205 81.8257L358.971 76.917L295.521 84.1562C260.624 88.1393 230.096 91.4442 227.679 91.5007C224.002 91.5864 223.286 92.6874 223.286 98.2449C223.286 110.171 229.262 152.378 235.037 181.242C245.076 231.422 265.778 298.161 271.303 298.161C274.725 298.161 274.716 297.685 271.118 289.092C269.507 285.243 268.189 281.765 268.189 281.36C268.189 279.167 273.224 281.225 278.306 285.495C285.768 291.761 287.124 291.629 288.696 284.487C289.735 279.767 288.897 277.289 284.458 271.932C279.96 266.505 277.927 265.449 273.568 266.273C269.081 267.123 267.877 266.417 266.17 261.937C264.107 256.522 265.967 253.445 271.348 253.371C272.549 253.356 274.015 249.749 274.604 245.356C275.864 235.993 281.765 228.984 290.935 225.963C301.14 222.602 308.114 225.305 319.638 237.084C328.303 245.943 331.106 247.695 335.762 247.165C340.303 246.646 341.401 245.573 341.401 241.65C341.401 237.455 340.415 236.697 334.29 236.186C327.746 235.64 327.016 234.952 325.13 227.534C324.004 223.103 323.584 218.664 324.197 217.674C324.812 216.682 329.642 216.286 334.93 216.793C342.215 217.491 346.065 219.153 350.785 223.637C355.961 228.553 357.814 229.255 361.695 227.768M368.725 232.154L368.645 231.836M368.725 232.154C368.698 232.046 368.671 231.94 368.645 231.836M361.695 227.768L361.96 227.666M361.695 227.768C361.785 227.733 361.873 227.699 361.96 227.666M396.891 235.804C402.283 235.804 406.328 237.297 410.557 240.849C417.72 246.865 417.792 247.49 411.797 251.839C405.098 256.699 395.618 253.133 391.95 244.372C391.88 244.205 391.811 244.041 391.744 243.881C390.008 239.738 389.162 237.72 389.833 236.736C390.471 235.802 392.48 235.802 396.398 235.804M396.891 235.804L396.398 235.804M396.891 235.804C396.723 235.804 396.559 235.804 396.398 235.804M368.645 231.836C367.839 228.629 367.454 227.097 366.537 226.646C365.699 226.234 364.416 226.725 361.96 227.666M366.741 2.62089C366.32 3.86802 365.718 19.0675 365.402 36.3968C365.086 53.7242 364.325 68.4053 363.708 69.0172C362.474 70.2448 338.65 73.1795 266.237 81.0287C239.929 83.8795 217.81 86.7694 217.082 87.4475C215.526 88.8973 219.61 129.022 224.151 156.884C230.914 198.394 243.68 247.921 256.706 283.191C259.8 291.57 262.332 298.765 262.332 299.18C262.332 299.593 259.363 300.489 255.731 301.169C250.159 302.212 247.344 301.197 237.673 294.667C211.986 277.318 191.424 270.88 161.71 270.88C129.429 270.88 87.9559 284.199 75.9687 298.418C62.1679 314.79 65.8461 371.492 82.7648 403.177L88.7623 414.407L81.1151 430.19C76.9098 438.869 71.8846 451.816 69.9459 458.961C66.4923 471.698 66.1605 472.126 53.1073 480.71C19.7248 502.662 -0.969708 538.988 1.14854 571.922C3.20042 603.839 26.8253 626.196 67.3356 634.558L83.696 637.935L90.5291 652.626C100.523 674.112 110.409 688.461 127.459 706.231C146.816 726.408 151.369 737.246 151.316 763.029C151.295 773.846 150.11 784.058 148.265 789.347C141.461 808.855 146.387 823.152 162.764 831.426C175.285 837.753 192.141 839.854 230.506 839.87C263.63 839.885 264.154 839.951 269.364 844.77C272.269 847.458 278.884 850.911 284.063 852.446C299.746 857.096 339.116 859.995 368.733 858.684C416.615 856.562 434.172 851.758 441.122 838.876L444.785 832.091H466.998C488.312 832.091 489.368 832.288 493.017 836.916C499.207 844.771 509.875 846.709 545.417 846.435C593.248 846.064 613.078 840.725 620.61 826.188C622.722 822.112 623.521 813.822 623.556 795.651C623.618 761.386 627.976 741.745 637.962 730.714C673.875 691.036 695.163 624.674 698.891 540.768C701.814 475.003 688.788 429.373 655.203 387.732C633.048 360.262 596.864 334.659 560.059 320.408C552.543 317.499 545.717 314.529 544.889 313.81C544.064 313.091 548.972 305.55 555.797 297.05C575.74 272.216 600.606 235.81 617.291 207.021C633.587 178.9 646.937 153.355 646.937 150.295C646.937 148.162 518.621 81.2118 514.531 81.2118C512.311 81.2118 511.991 79.0138 512.952 70.3306C513.614 64.3463 514.728 48.8487 515.429 35.8901L516.704 12.329L500.311 11.0644C491.295 10.3687 461.077 8.05176 433.159 5.91409C405.241 3.77837 379.047 1.65435 374.951 1.19252C370.345 0.674179 367.214 1.21981 366.741 2.62089ZM441.944 12.6681C475.768 15.3202 505.1 17.5047 507.126 17.5222C510.574 17.5534 510.726 18.7771 509.496 36.5547C506.831 75.0463 502.12 105.554 497.253 115.824L492.572 125.705L493.649 117.911C497.981 86.5804 502.552 40.6468 502.07 33.2692L501.49 24.3756L444.873 19.1513C413.734 16.279 386.278 13.8665 383.863 13.7925C379.615 13.6619 379.471 14.2524 379.459 31.683C379.447 51.0273 374.453 111.546 371.941 122.782C369.11 135.447 367.481 104.525 369.633 78.9378C370.714 66.0767 371.612 44.813 371.63 31.683C371.661 8.23104 371.737 7.81208 376.054 7.82961C378.469 7.83936 408.121 10.016 441.944 12.6681ZM436.087 22.6238C455.952 24.1691 474.975 25.878 478.361 26.4198L484.514 27.4038L483.614 39.5303C481.289 70.8762 473.105 133.566 470.276 141.71C469.736 143.263 466.022 141.768 459.455 137.356C446.913 128.932 432.966 124.731 417.541 124.731C404.89 124.731 387.44 128.938 379.765 133.837C375.293 136.694 375.207 136.629 376.257 131.236C376.849 128.194 378.317 117.375 379.517 107.193C380.72 97.0115 382.069 86.4888 382.516 83.8094C382.965 81.13 383.912 65.6558 384.623 49.4216L385.917 19.9073L392.943 19.8586C396.807 19.8333 416.223 21.0785 436.087 22.6238ZM495.976 48.2466C494.284 74.5436 485.506 133.728 481.832 143.623C479.804 149.087 477.904 151.455 476.1 150.765C474.218 150.044 473.884 148.458 474.997 145.513C476.401 141.791 481.272 109.617 486.928 66.6789C487.958 58.8648 488.8 47.2469 488.8 40.8593C488.8 30.2742 489.171 29.2472 492.999 29.2472C497.093 29.2472 497.167 29.7227 495.976 48.2466ZM422.24 49.3787C415.551 52.9097 412.802 55.9281 409.889 62.9452C406.588 70.8938 406.438 72.9574 408.621 80.2297C415.063 101.694 441.456 111.344 458.383 98.4223C476.043 84.9416 471.276 56.5828 449.914 48.0497C438.996 43.6906 432.417 44.0063 422.24 49.3787ZM449.785 52.3426C470.813 63.4947 470.323 90.314 448.943 98.4652C440.476 101.692 439.52 101.696 431.261 98.549C414.528 92.171 406.969 76.6247 414.013 63.0758C420.824 49.975 436.468 45.2787 449.785 52.3426ZM340.424 84.8695C338.814 85.2494 313.555 88.3829 284.296 91.834L231.095 98.1067V105.587C231.095 122.673 244.228 201.814 250.603 223.138C251.565 226.353 253.312 232.712 254.488 237.266C255.663 241.819 257.264 245.547 258.045 245.547C258.826 245.547 261.005 241.213 262.891 235.919C270.544 214.412 293.395 200.247 320.901 199.966C338.089 199.791 347.166 202.552 358.985 211.557C363.729 215.172 367.975 217.502 368.418 216.736C368.864 215.971 367.181 204.382 364.68 190.985C360.363 167.853 354.661 118.69 353.603 95.5013C353.152 85.5905 352.747 84.7603 348.234 84.4817C345.549 84.316 342.035 84.4914 340.424 84.8695ZM348.304 99.8858C348.409 115.068 349.932 129.835 355.201 166.748C355.55 169.192 355.878 171.482 356.186 173.628C359.458 196.469 360.375 202.868 358.894 203.482C358.318 203.721 357.378 203.083 356.074 202.198C355.759 201.984 355.424 201.757 355.067 201.523C352.382 199.768 350.186 198.791 350.186 199.353C350.186 199.916 345.575 199.15 339.936 197.651C319.287 192.166 297.679 196.02 279.452 208.443C273.3 212.637 267.832 215.367 267.301 214.511C263.146 207.802 247.454 103.649 250.206 101.059C251.983 99.3849 324.431 90.1503 337.984 89.8677L348.234 89.6553L348.304 99.8858ZM579.096 120.156C611.576 136.932 638.571 151.016 639.086 151.455C640.203 152.41 630.867 170.756 615.005 198.774C595.989 232.361 567.234 274.021 544.308 301.199L535.991 311.057L514.43 305.766C502.571 302.855 484.878 299.385 475.11 298.052L457.348 295.629L451.333 286.901C443.93 276.162 440.008 263.656 439.945 250.596L439.896 240.676L430.984 250.906C423.034 260.03 416.564 263.923 416.564 259.585C416.564 258.732 421.968 251.058 428.573 242.535C456.926 205.937 494.292 142.01 511.952 99.8858C514.311 94.26 517.095 89.6553 518.139 89.6553C519.185 89.6553 546.615 103.382 579.096 120.156ZM518.012 103.783C509.442 125.501 481.752 177.586 465.044 203.41C460.97 209.708 458.078 215.573 458.619 216.446C459.158 217.317 462.869 216.668 466.864 215.002C477.088 210.739 500.449 212.344 512.649 218.149C534.82 228.699 549.552 249.219 549.737 269.806C549.792 275.804 550.491 281.114 551.293 281.609C553.095 282.722 581.786 241.648 597.578 215.343C613.138 189.432 629.678 157.821 628.901 155.49C628.556 154.46 623.907 151.225 618.571 148.302C597.611 136.826 522.458 97.4499 521.513 97.4499C520.962 97.4499 519.387 100.299 518.012 103.783ZM244.761 109.75C244.761 119.733 254.248 182.253 258.515 200.395C262.711 218.237 263.127 223.74 260.579 227.756C258.543 230.964 256.711 225.562 250.765 198.78C245.89 176.832 236.952 119.322 236.952 109.91C236.952 104.596 237.719 103.296 240.857 103.296C243.975 103.296 244.761 104.596 244.761 109.75ZM531.171 107.589C535.77 109.563 609.595 147.848 611.434 149.212C613.993 151.11 555.881 251.393 552.222 251.393C551.904 251.393 549.413 247.593 546.686 242.948C535.505 223.905 515.281 211.477 490.405 208.363C481.686 207.272 473.345 206.843 471.869 207.408C468.605 208.657 469.265 207.338 482.837 185.498C488.261 176.77 499.826 155.142 508.538 137.436C517.247 119.731 524.675 105.245 525.042 105.245C525.409 105.245 528.168 106.299 531.171 107.589ZM285.762 119.125C268.578 125.964 260.901 147.807 270.331 163.034C275.561 171.481 283.228 175.396 294.545 175.396C304.963 175.396 311.792 172.288 319.761 163.92C327.91 155.366 329.242 139.321 322.608 129.616C315.253 118.858 298.452 114.074 285.762 119.125ZM308.159 122.763C317.374 126.259 322.854 134.1 322.854 143.785C322.854 159.462 311.136 171.635 295.84 171.845C280.409 172.058 270.141 161.864 270.141 146.33C270.141 140.31 271.578 136.873 276.379 131.415C279.811 127.516 284.422 123.595 286.629 122.703C292.216 120.444 302.122 120.471 308.159 122.763ZM439.246 131.881C451.081 135.604 465.993 146.347 471.331 154.995C474.96 160.876 474.954 160.935 469.827 169.515L464.681 178.13L462.586 169.456C460.759 161.888 459.357 160.218 451.593 156.371C438.352 149.808 432.032 151.804 417.369 167.177C407.898 177.105 404.562 179.465 401.399 178.463C396.83 177.015 394.695 172.845 396.335 168.576C397.428 165.731 400.538 164.778 407.068 165.282C409.265 165.452 410.909 162.995 412.324 157.425C413.458 152.971 413.944 148.614 413.408 147.745C412.869 146.877 408.441 146.166 403.564 146.166C396.057 146.166 393.666 147.197 387.953 152.899C382.21 158.632 380.501 159.36 376.435 157.817C369.067 155.021 370.164 147.768 378.967 141.067C394.591 129.172 418.876 125.472 439.246 131.881ZM533.504 150.623C511.981 165.084 521.011 201.155 547.262 205.582C568.304 209.131 585.697 190.763 580.361 170.631C574.873 149.925 550.213 139.395 533.504 150.623ZM563.309 153.474C575.211 160.465 581.101 180.032 574.486 190.605C571.146 195.944 558.813 202.677 552.375 202.677C528.74 202.677 516.081 170.035 533.91 155.06C541.135 148.992 554.456 148.273 563.309 153.474ZM407.369 155.909C406.719 158.388 404.706 159.807 401.834 159.807C395.411 159.807 391.184 164.862 391.184 172.543C391.184 184.849 406.932 187.587 416.061 176.869C431.902 158.273 437.302 155.451 448.738 159.791C465.612 166.194 458.73 198.922 439.504 203.71C434.676 204.914 434.135 204.536 434.135 199.964C434.135 195.611 434.979 194.882 440.021 194.882C444.566 194.882 446.788 193.44 449.775 188.549C454.71 180.47 454.648 177.674 449.414 172.11C441.679 163.895 434.945 165.908 421.275 180.525C409.46 193.158 409.019 193.417 401.651 192.084C391.241 190.198 385.732 184.149 385.044 173.851C384.275 162.319 392.194 152.012 401.822 152.012C407.428 152.012 408.24 152.583 407.369 155.909ZM620.36 155.12C622.966 156.118 622.712 157.607 618.535 165.838C615.866 171.095 612.765 175.396 611.647 175.396C610.528 175.396 610.095 176.175 610.686 177.13C612.703 180.386 563.243 262.237 556.892 266.156C553.228 268.417 555.42 256.31 559.709 250.602C571.41 235.03 596.198 193.208 610.35 165.165C613.46 159.002 616.303 153.961 616.668 153.961C617.033 153.961 618.695 154.483 620.36 155.12ZM380.16 178.919C381.571 187.727 388.268 194.643 397.34 196.663C407.888 199.012 414.782 195.857 426.461 183.337C435.269 173.892 438.173 171.898 441.757 172.833C447.385 174.303 448.9 178.256 446.148 184.289C444.541 187.807 442.44 189.036 438.034 189.036C431.951 189.036 430.217 191.369 427.107 203.737C425.959 208.301 426.32 208.523 434.901 208.523C439.848 208.523 443.897 208.981 443.897 209.538C443.897 210.097 441.583 214.043 438.756 218.307C433.965 225.535 432.987 226.061 424.36 226.061C413.458 226.061 401.563 222.195 390.003 214.895C381.843 209.743 381.612 209.3 378.616 193.004C375.088 173.818 374.943 171.499 377.268 171.499C378.205 171.499 379.506 174.839 380.16 178.919ZM396.592 223.301C402.457 226.072 411.986 228.826 417.767 229.42C423.548 230.017 428.278 230.903 428.278 231.392C428.278 231.879 426.42 234.884 424.149 238.068C420.034 243.836 420.004 243.842 415.852 240.073C409.251 234.083 403.751 231.907 395.218 231.907C390.852 231.907 387.28 231.683 387.28 231.406C387.28 231.131 386.462 228.062 385.464 224.586C384.465 221.111 384.16 218.266 384.787 218.266C385.413 218.266 390.726 220.532 396.592 223.301ZM345.846 225.198C348.234 226.866 350.186 229.496 350.186 231.043C350.186 233.811 352.216 234.59 357.995 234.039C360.205 233.826 360.086 234.272 357.507 235.853C355.629 237.004 354.091 239.656 354.091 241.747C354.091 243.836 352.773 245.547 351.162 245.547C349.536 245.547 348.234 243.815 348.234 241.65C348.234 236.334 341.438 229.958 335.772 229.958C332.76 229.958 330.759 228.582 330.097 226.061C329.234 222.766 330.038 222.163 335.292 222.163C338.71 222.163 343.46 223.529 345.846 225.198ZM451.928 230.326C449.57 234.095 449.713 234.956 453.162 237.743C456.407 240.366 456.903 242.55 456.114 250.746C455.023 262.076 458.574 269.286 467.518 273.902C475.864 278.21 484.224 277.316 497.212 270.73C506.919 265.805 509.844 265.1 513.559 266.789C519.156 269.334 519.383 274.948 514.082 279.736C510.726 282.768 509.152 283.002 504.344 281.192C499.12 279.224 498.171 279.549 493.704 284.848C487.513 292.192 487.527 295.008 493.772 297.847C501.101 301.181 512.395 300.583 519.061 296.508C524.283 293.314 525.392 293.235 529.306 295.766C533.324 298.363 534.017 298.215 537.537 293.999C541.366 289.411 541.364 289.378 537.428 286.064C534.074 283.24 533.754 281.726 535.315 276.075C537.996 266.386 536.077 259.961 528.527 253.344C519.388 245.335 508.926 245.387 493.659 253.519C484.274 258.517 481.568 259.188 477.765 257.459C472.543 255.084 471.75 249.158 476.168 245.499C478.548 243.526 480.223 243.511 484.423 245.423C489.235 247.611 490.077 247.34 494.147 242.299C499.541 235.613 499.139 231.833 492.687 228.575C486.145 225.27 477.326 225.453 470.446 229.032C465.39 231.665 464.435 231.663 461.508 229.021C457.077 225.018 455.08 225.289 451.928 230.326ZM305.9 232.144C308.244 233.347 312.567 237.067 315.505 240.411C320.216 245.769 320.452 246.629 317.499 247.662C315.341 248.418 312.87 247.211 310.55 244.267C307.967 240.989 304.971 239.701 299.926 239.701C286.875 239.701 281.787 250.093 289.526 260.944C295.232 268.943 291.449 273.13 285.623 265.266C283.146 261.922 279.309 259.086 277.095 258.962C273.802 258.777 273.691 258.574 276.486 257.845C278.89 257.218 279.903 255.002 279.903 250.368C279.903 241.155 283.485 234.317 289.457 232.129C296.449 229.568 300.884 229.572 305.9 232.144ZM490.161 233.45C494.903 236.459 489.339 240.568 481.307 239.99C475.108 239.542 472.974 240.311 470.458 243.899C466.444 249.618 466.477 255.024 470.555 259.521C475.286 264.739 485.057 263.935 498.257 257.239C512.731 249.897 516.273 249.924 524.849 257.442C532.612 264.243 533.781 271.016 528.498 278.546C525.405 282.953 525.452 283.349 529.474 286.599C535.171 291.204 534.859 293.161 529.035 289.351C524.662 286.492 523.902 286.613 517.048 291.255C508.907 296.771 506.995 297.093 499.452 294.23C495.09 292.576 494.633 291.769 496.668 289.322C498.384 287.258 501.023 286.753 505.609 287.613C511.132 288.646 513.026 287.921 518.159 282.796C526.143 274.828 525.527 267.686 516.398 262.384L509.83 258.57L496.89 264.94C479.971 273.267 476.93 273.651 469.195 268.432C461.343 263.136 459.197 256.292 462.438 246.886C464.656 240.448 464.507 239.582 460.726 236.864C456.798 234.039 456.864 234.003 462.028 236.164C466.565 238.064 468.014 237.901 470.743 235.175C474.107 231.819 485.934 230.767 490.161 233.45ZM304.695 246.525L308.881 249.45L302.964 255.357C298.296 260.016 296.476 260.788 294.332 259.012C289.231 254.786 292.189 243.599 298.405 243.599C299.563 243.599 302.393 244.916 304.695 246.525ZM393.244 258.741C413.655 264.884 427.876 272.784 437.239 283.18C448.157 295.296 461.616 322.073 469.581 347.52C472.994 358.419 476.092 367.718 476.469 368.182C476.844 368.647 478.119 368.061 479.302 366.88C481.978 364.208 474.077 335.522 465.407 316.437C462.166 309.303 459.515 303.14 459.515 302.74C459.515 301.701 472.927 303.699 496.609 308.266C536.227 315.905 573.399 330.329 602.5 349.352C623.446 363.043 633.667 371.728 647.454 387.549C681.629 426.764 696.068 475.129 692.906 539.793C688.439 631.103 665.111 695.599 621.295 737.786C613.386 745.399 601.864 754.472 595.689 757.944C589.513 761.419 584.463 765.55 584.463 767.129C584.463 772.252 598.379 765.893 614.552 753.381L622.187 747.472L620.988 752.27C618.3 763.034 617.353 773.881 617.023 797.664L616.676 822.673L610.434 828.236C602.629 835.195 594.917 837.342 567.868 840.092C533.127 843.625 496.609 839.398 496.609 831.845C496.609 830.53 493.148 822.314 488.917 813.588C481.678 798.663 471.331 786.566 460.362 780.212C456.704 778.092 456.698 777.901 460.144 774.056C462.102 771.875 466.274 769.026 469.417 767.727C472.562 766.427 475.134 764.155 475.134 762.678C475.134 754.758 455.749 766.454 448.551 778.715C444.966 784.818 443.151 791.847 441.716 805.174C439.219 828.349 436.328 837.662 430.231 842.152C413.581 854.41 317.469 857 285.004 846.064C269.727 840.916 267.658 836.627 266.022 806.715C264.37 776.533 261.541 769.27 248.633 762.083C238.028 756.179 209.62 753.558 209.62 758.482C209.62 760.657 213.05 761.661 223.466 762.532C231.08 763.169 240.523 765.326 244.453 767.323C255.351 772.863 258.105 780.459 259.646 809.231L260.975 834.039H233.782C203.253 834.039 178.061 831.438 168.012 827.246C154.135 821.459 148.124 808.849 153.061 795.887C157.3 784.76 159.172 762.019 157.001 748.053C154.042 729.005 148.296 718.165 133.128 703.01C118.145 688.037 107.86 673.646 97.6023 653.302L90.4803 639.174H129.14C171.245 639.174 183.199 637.319 200.04 628.17C212.084 621.627 224.865 609.011 229.276 599.313C235.084 586.541 229.691 583.772 223.313 596.251C217.646 607.339 207.392 616.831 193.439 623.911C183.586 628.911 178.383 630.213 165.693 630.852L150.074 631.639L161.788 625.571C201.024 605.241 210.645 566.942 187.483 523.29C181.536 512.082 162.218 490.506 150.074 481.509L144.218 477.171L150.074 478.376C171.22 482.727 187.408 488.343 194.464 493.78C203.421 500.678 215.588 519.74 221.677 536.41C225.968 548.153 227.831 550.575 231.046 548.591C232.19 547.886 231.015 542.286 228.098 534.551C217.763 507.144 204.118 489.723 187.168 482.291C161.765 471.152 101.31 462.621 83.0107 467.59C78.3389 468.861 74.1414 469.523 73.6826 469.065C72.4234 467.808 82.4114 441.02 89.0883 427.746C109.617 386.928 146.504 351.663 191.046 330.275C219.112 316.796 244.412 309.054 279.639 303.165L286.209 302.066L284.891 312.589L283.575 323.109L298.161 330.113C316.155 338.751 339.159 359.744 357.517 384.281C364.613 393.767 371.357 401.219 372.505 400.845C375.966 399.709 375.986 382.757 372.546 365.789C365.551 331.272 346.266 283.318 331.742 264.328C327.928 259.338 324.806 254.716 324.806 254.053C324.806 253.392 337.326 253.309 352.626 253.87C372.247 254.589 384.218 256.025 393.244 258.741ZM325.583 268.931C341.522 290.949 361.484 342.777 366.843 376.056L368.247 384.772L356.574 370.21C343.97 354.486 332.512 343.249 319.503 333.854C314.976 330.584 311.901 327.281 312.67 326.514C313.44 325.746 313.19 325.391 312.116 325.726C309.742 326.469 294.25 320.375 293.022 318.216C291.199 315.015 295.631 286.325 299.57 275.814C304.943 261.481 310.05 256.541 316.173 259.759C318.633 261.053 322.869 265.18 325.583 268.931ZM434.241 265.585C433.467 266.423 431.334 266.534 429.497 265.831C426.361 264.63 426.365 264.322 429.588 260.768C432.862 257.157 433.079 257.148 434.33 260.523C435.053 262.467 435.012 264.745 434.241 265.585ZM200.565 282.64C214.34 287.289 237.216 299.926 238.43 303.559C238.805 304.681 236.21 306.23 232.663 307.002C229.116 307.772 219.725 310.889 211.795 313.931L197.373 319.46L177.629 310.94C153.93 300.715 128.613 292.609 113.957 290.557L103.219 289.055L109.076 286.611C135.518 275.584 174.632 273.886 200.565 282.64ZM120.144 299.266C143.634 305.067 184.24 320.36 184.24 323.404C184.24 324.226 178.92 327.73 172.417 331.188C146.363 345.049 110.136 377.592 97.5066 398.475C94.1291 404.064 92.743 405.056 91.1285 403.039C87.3625 398.341 82.4153 387.454 83.5359 386.335C84.1411 385.729 83.6413 384.036 82.425 382.572C81.2068 381.107 80.7676 379.353 81.4489 378.675C82.1283 377.995 81.9175 376.483 80.9784 375.312C75.2718 368.199 73.0169 325.976 77.5365 310.827C81.6558 297.013 95.6519 293.215 120.144 299.266ZM586.415 364.156C586.415 365.085 590.125 368.295 594.656 371.29C606.391 379.039 631.097 404.257 640.426 418.003C655.958 440.892 666.938 466.89 672.522 494C675.167 506.834 675.87 549.199 673.586 558.009C672.516 562.136 672.793 563.343 674.669 562.719C681.512 560.443 681.295 509.515 674.324 482.308C662.639 436.704 640.037 401.897 602.732 372.057C591.231 362.858 586.415 360.525 586.415 364.156ZM453.902 386.778C437.882 396.967 422.294 401.566 399.482 402.834C388.402 403.45 379.471 404.804 379.471 405.866C379.471 409.429 420.285 406.159 433.413 401.546C446.977 396.78 465.69 386.094 466.866 382.44C468.096 378.621 465.208 379.587 453.902 386.778ZM128.312 477.834C152.454 487.996 171.724 506.442 183.882 531.024C194.808 553.116 196.436 576.184 188.205 592.29C186.204 596.201 180.476 603.167 175.472 607.772C158.456 623.427 133.277 631.312 100.291 631.312C57.4551 631.312 24.8184 616.632 12.0308 591.612C-7.55087 553.299 30.437 488.672 80.8144 474.595C94.5176 470.766 114.81 472.15 128.312 477.834ZM73.9618 488.224C49.2495 498.248 32.1181 514.515 21.1969 538.326C15.4688 550.817 12.8175 563.177 15.869 563.177C16.9642 563.177 18.3953 560.328 19.0532 556.844C23.2917 534.345 44.8686 507.317 67.6852 495.923C75.1684 492.186 82.4407 489.128 83.8425 489.128C85.2462 489.128 86.8997 488.312 87.5167 487.314C89.9278 483.421 84.9845 483.752 73.9618 488.224ZM43.7421 545.511C40.7238 551.142 41.3037 562.481 44.7886 565.962C51.9301 573.09 60.1804 567.419 60.1804 555.382C60.1804 551.366 58.9935 546.654 57.5449 544.91C53.9429 540.58 46.2059 540.918 43.7421 545.511ZM96.181 544.91C94.7324 546.654 93.5454 551.366 93.5454 555.382C93.5454 563.573 97.0596 569.023 102.343 569.023C108.074 569.023 112.004 563.473 112.004 555.382C112.004 543.63 102.485 537.33 96.181 544.91ZM105.242 653.302C108.975 665.791 126.268 689.175 140.198 700.567C153.989 711.847 153.128 707.075 138.888 693.317C126.696 681.536 113.992 664.133 110.07 653.834C107.715 647.655 103.412 647.181 105.242 653.302ZM164.717 681.68C164.717 684.878 175.989 694.076 177.305 691.952C178.022 690.794 176.142 687.68 173.127 685.032C167.444 680.043 164.717 678.956 164.717 681.68ZM138.724 683.305C138.05 683.978 139.247 686.977 141.381 689.97C146.443 697.063 162.823 707.361 160.486 701.981C159.03 698.624 139.86 682.173 138.724 683.305ZM158.333 692.18C162.844 696.683 167.165 699.738 167.932 698.97C169.83 697.078 156.904 683.993 153.138 683.993C151.256 683.993 153.202 687.057 158.333 692.18ZM282.3 770.094C285.118 778.536 426.326 781.593 426.326 773.214C426.326 771.856 421.121 771.632 410.69 772.54C375.507 775.603 319.418 773.808 287.995 768.615C283.113 767.807 281.664 768.185 282.3 770.094ZM544.44 770.085C539.072 771.098 523.479 772.09 509.789 772.29C494.204 772.52 485.149 773.386 485.569 774.605C487.257 779.506 564.94 774.566 564.94 769.558C564.94 767.417 557.587 767.606 544.44 770.085ZM465.891 793.123C474.528 800.711 483.003 812.972 485.754 821.86C487.101 826.215 486.972 826.245 466.553 826.245H445.995L447.095 813.091C448.555 795.624 451.276 785.323 454.435 785.323C455.853 785.323 461.009 788.832 465.891 793.123Z" stroke="#D59ACF" stroke-width="2"/>
<path d="M591.22 578.744H610.807V593.313H591.22V625.926H573.37V593.313H509.303V582.796L572.212 485.441H591.22V578.744ZM529.083 578.744H573.37V509.177L570.475 514.58L529.083 578.744Z" fill="#D59ACF"/>
<path d="M488.365 572.182C488.365 581.124 487.336 589.068 485.277 596.015C483.219 602.897 480.26 608.687 476.401 613.382C472.541 618.142 467.813 621.745 462.217 624.189C456.621 626.633 450.221 627.855 443.016 627.855C435.876 627.855 429.476 626.665 423.815 624.285C418.155 621.841 413.363 618.207 409.439 613.382C405.515 608.687 402.524 602.897 400.466 596.015C398.407 589.068 397.378 581.124 397.378 572.182V539.28C397.378 530.339 398.407 522.427 400.466 515.545C402.524 508.598 405.515 502.744 409.439 497.984C413.298 493.224 418.026 489.622 423.622 487.178C429.283 484.669 435.683 483.415 442.823 483.415C450.028 483.415 456.428 484.669 462.024 487.178C467.685 489.622 472.477 493.224 476.401 497.984C480.26 502.744 483.219 508.598 485.277 515.545C487.336 522.427 488.365 530.339 488.365 539.28V572.182ZM415.324 568.612L470.033 526.641C469.518 522.009 468.585 517.925 467.234 514.387C465.948 510.785 464.179 507.794 461.928 505.414C459.741 502.969 457.039 501.136 453.823 499.914C450.671 498.692 447.004 498.081 442.823 498.081C438.578 498.081 434.815 498.756 431.534 500.107C428.318 501.393 425.584 503.291 423.333 505.8C420.631 508.951 418.605 513.036 417.254 518.053C415.968 523.006 415.324 528.763 415.324 535.324V558.867C415.324 560.475 415.324 562.084 415.324 563.692C415.324 565.3 415.324 566.94 415.324 568.612ZM470.418 575.945V556.069C470.418 555.104 470.418 553.271 470.418 550.569C470.418 547.803 470.418 545.52 470.418 543.719L415.807 585.498C416.386 590.193 417.415 594.342 418.895 597.944C420.374 601.482 422.304 604.409 424.684 606.725C426.871 608.912 429.508 610.584 432.596 611.742C435.683 612.836 439.157 613.382 443.016 613.382C447.069 613.382 450.671 612.771 453.823 611.549C456.975 610.327 459.644 608.558 461.831 606.242C464.79 603.09 466.945 598.974 468.296 593.892C469.711 588.81 470.418 582.828 470.418 575.945Z" fill="#D59ACF"/>
<path d="M353.863 578.744H373.449V593.313H353.863V625.926H336.013V593.313H271.945V582.796L334.855 485.441H353.863V578.744ZM291.725 578.744H336.013V509.177L333.118 514.58L291.725 578.744Z" fill="#D59ACF"/>
<path d="M113.894 425.591L168.964 405.766M132.067 392.549L155.747 437.706M216.325 466.343L285.162 432.75M228.991 420.084L267.54 482.313" stroke="#D59ACF" stroke-width="7"/>
</svg>
