<svg width="6320" height="2824" viewBox="0 0 6320 2824" fill="none" xmlns="http://www.w3.org/2000/svg">
<path fill-rule="evenodd" clip-rule="evenodd" d="M0 1541.09V1821.94V1874.72L36.7342 1821.94L73.4685 1874.72L110.203 1821.94L146.937 1874.72L183.671 1821.94L220.405 1874.72L257.14 1821.94L293.874 1874.72V1821.94V1541.09H0ZM26.5435 1593.92V1574.54H134.613V1593.92H26.5435ZM264.803 1593.92V1574.54H158.629V1593.92H264.803ZM158.629 1613.3H264.803V1632.68H158.629V1613.3ZM26.5435 1613.3V1632.68H134.613V1613.3H26.5435ZM26.5435 1652.06H134.613V1671.44H26.5435V1652.06ZM264.803 1671.44V1652.06H158.629V1671.44H264.803ZM158.629 1690.82H264.803V1710.2H158.629V1690.82ZM26.5435 1690.82V1710.2H134.613V1690.82H26.5435Z" fill="#D59ACF"/>
<path fill-rule="evenodd" clip-rule="evenodd" d="M913.392 1421.93L801.404 1241.89C742.881 1223.65 690.576 1204.91 644.487 1185.67C579.785 1158.24 526.204 1128.26 483.744 1095.75C442.295 1063.24 411.46 1028.19 391.241 990.599C372.033 951.992 362.429 909.321 362.429 862.586C362.429 793.5 378.604 732.033 410.955 678.186C444.316 624.339 494.865 581.668 562.599 550.173C630.333 518.678 716.265 502.93 820.394 502.93C930.588 502.93 1021.57 521.726 1093.35 559.317C1136.34 581.219 1172.63 608.162 1202.56 640.265L1414.48 485.999C1366.11 436.875 1308.6 394.259 1241.96 358.153C1159.84 312.541 1064.87 283.181 957.076 270.073V0H706.886V267.596C637.56 274.487 572.783 287.909 512.556 307.862C420.559 338.342 341.199 381.013 274.475 435.876C208.763 489.722 158.215 553.221 122.831 626.371C87.4476 699.522 69.7558 779.276 69.7558 865.634C69.7558 951.992 86.4367 1028.7 119.798 1095.75C153.16 1162.81 201.181 1222.24 263.86 1274.06C326.54 1325.87 401.856 1372.1 489.81 1412.74C551.629 1440.59 618.693 1466.68 691.001 1491.02L913.392 1421.93Z" fill="#82C38F"/>
<path fill-rule="evenodd" clip-rule="evenodd" d="M1310.2 1950.7C1310.2 1898.88 1302.12 1853.16 1285.94 1813.54C1270.78 1772.9 1243.48 1736.33 1204.05 1703.82C1165.64 1671.3 1112.06 1640.32 1043.31 1610.85C986.4 1586.1 916.644 1560.99 834.042 1535.51L1020.62 1457.68L933.248 1280.72C1036.06 1312.11 1126.33 1346.46 1204.05 1383.78C1295.04 1427.47 1369.85 1476.74 1428.49 1531.61C1488.13 1585.45 1532.11 1646.92 1560.42 1716.01C1589.73 1784.08 1604.39 1861.29 1604.39 1947.65C1604.39 2038.07 1586.2 2119.86 1549.8 2193.01C1513.41 2266.16 1461.34 2328.64 1393.61 2380.46C1325.87 2432.27 1244.49 2472.4 1149.46 2500.85C1089.81 2518.25 1025.68 2530.14 957.076 2536.5V2824H706.886V2534.55C648.166 2527.63 589.961 2515.89 532.27 2499.33C434.207 2470.88 344.737 2428.21 263.86 2371.31C183.994 2314.42 119.798 2244.32 71.2723 2161.01C39.4832 2104.59 18.328 2042.26 7.80684 1974.02C5.99669 1962.28 4.50131 1950.36 3.3207 1938.27L36.3942 1868.4L75.4537 1938.27L109.183 1868.4L145.578 1938.27L181.972 1868.4L218.367 1938.27L254.761 1868.4L295.659 1938.27C296.939 1947.74 298.492 1957.01 300.318 1966.08C307.592 2002.2 319.197 2035.17 335.133 2065C364.451 2118.84 404.384 2163.55 454.932 2199.1C506.49 2234.66 564.621 2261.08 629.322 2278.35C695.035 2294.61 763.274 2302.73 834.042 2302.73C936.148 2302.73 1022.59 2288.51 1093.35 2260.06C1164.12 2231.62 1217.7 2190.98 1254.1 2138.15C1291.5 2085.32 1310.2 2022.83 1310.2 1950.7Z" fill="#D59ACF"/>
<path fill-rule="evenodd" clip-rule="evenodd" d="M1792.07 763.246C1701.92 721.919 1650.93 698.533 1514.28 572.39L1518.03 576.809L1524.46 584.331L1529.3 589.958L1532.85 594.07L1535.53 597.152L1540.75 603.154L1543.58 606.384L1548.42 611.895L1549.91 613.587L1554.68 618.973L1558.54 623.303L1560.58 625.587L1564.98 630.487L1567.91 633.731L1572.31 638.575L1574.07 640.516L1579.31 646.228L1580.38 647.387L1586.81 654.323L1592.47 660.357L1592.78 660.697C1607.26 676.067 1620.74 689.763 1613.11 681.398C1658.88 730.831 1704.04 766.11 1749.52 795.731L1793 763.671L1792.07 763.246ZM1537.99 793.261C1540.23 775.758 1535.84 757.092 1524.29 741.421C1512.73 725.743 1496.2 716.025 1478.82 712.989C1461.45 709.953 1443.21 713.6 1428.23 724.642C1413.25 735.687 1404.37 752.039 1402.13 769.539C1399.89 787.042 1404.28 805.708 1415.84 821.386C1427.39 837.057 1443.92 846.775 1461.3 849.811C1478.68 852.842 1496.92 849.195 1511.9 838.15C1526.88 827.11 1535.75 810.758 1537.99 793.261ZM1507.67 764.495C1509.44 768.784 1510.28 773.221 1510.19 777.416C1510.04 784.858 1507.04 791.606 1501.25 795.876C1497.55 798.604 1492.24 797.679 1489.38 793.807C1486.53 789.935 1487.21 784.578 1490.91 781.85C1492.46 780.711 1493.26 778.682 1493.31 776.331C1493.38 773.314 1492.26 769.874 1489.94 766.735C1487.63 763.599 1484.68 761.512 1481.78 760.682C1479.52 760.035 1477.34 760.204 1475.8 761.343C1471.25 764.696 1474.44 771.298 1477.62 777.898C1483.92 790.954 1490.22 804.014 1474.67 815.479C1468.88 819.749 1461.55 820.619 1454.39 818.561C1450.36 817.404 1446.37 815.291 1442.8 812.326L1440.92 813.71C1437.22 816.438 1431.91 815.507 1429.05 811.634C1426.2 807.761 1426.88 802.411 1430.58 799.683L1432.46 798.3C1430.69 794.016 1429.84 789.574 1429.93 785.378C1430.09 777.937 1433.08 771.191 1438.87 766.921C1442.57 764.193 1447.89 765.119 1450.75 768.992C1453.6 772.864 1452.91 778.217 1449.21 780.945C1447.66 782.087 1446.86 784.115 1446.81 786.466C1446.75 789.483 1447.86 792.923 1450.18 796.059C1452.49 799.198 1455.45 801.283 1458.34 802.115C1460.6 802.762 1462.78 802.594 1464.33 801.453C1468.87 798.103 1465.69 791.502 1462.5 784.902C1456.2 771.848 1449.9 758.79 1465.46 747.319C1471.25 743.051 1478.57 742.182 1485.73 744.234C1489.76 745.392 1493.75 747.506 1497.33 750.469L1499.2 749.088C1502.9 746.361 1508.21 747.287 1511.07 751.159C1513.92 755.032 1513.24 760.388 1509.54 763.114L1507.67 764.495ZM1656.08 865.853L1444.41 578.694C1433.53 584.362 1421.26 586.006 1409.47 583.947C1397.68 581.889 1386.36 576.13 1377.38 566.995L1292.69 629.446C1298.76 640.726 1300.91 653.246 1299.39 665.119C1297.87 676.991 1292.67 688.23 1284.04 696.942L1495.72 984.101C1506.59 978.432 1518.86 976.79 1530.65 978.849C1542.44 980.907 1553.76 986.666 1562.74 995.803L1647.44 933.352C1641.37 922.07 1639.21 909.547 1640.74 897.675C1642.25 885.803 1647.45 874.564 1656.08 865.853ZM1554.78 796.189C1551.98 818.018 1540.91 838.405 1522.24 852.173C1503.56 865.945 1480.81 870.492 1459.14 866.708C1437.46 862.926 1416.84 850.811 1402.44 831.269C1388.03 811.721 1382.55 788.44 1385.35 766.608C1388.15 744.779 1399.21 724.387 1417.89 710.615C1436.56 696.848 1459.31 692.303 1480.99 696.089C1502.66 699.874 1523.28 711.989 1537.69 731.538C1552.1 751.079 1557.57 774.36 1554.78 796.189ZM1580.86 889.139C1585.17 894.992 1586.81 901.983 1585.97 908.547C1585.13 915.135 1581.81 921.28 1576.22 925.402C1570.61 929.541 1563.76 930.905 1557.25 929.77C1556.99 929.723 1556.73 929.665 1556.48 929.599C1550.23 928.314 1544.35 924.738 1540.2 919.117C1535.88 913.248 1534.23 906.247 1535.07 899.686C1535.1 899.419 1535.15 899.162 1535.21 898.91C1536.2 892.631 1539.47 886.819 1544.86 882.851C1550.46 878.718 1557.3 877.349 1563.82 878.489C1564.08 878.533 1564.33 878.592 1564.59 878.659C1570.83 879.941 1576.71 883.513 1580.86 889.139ZM1399.91 643.674C1404.23 649.53 1405.87 656.521 1405.03 663.085C1404.19 669.671 1400.87 675.819 1395.28 679.94C1389.67 684.079 1382.83 685.446 1376.31 684.311C1369.79 683.171 1363.59 679.527 1359.26 673.652C1354.93 667.782 1353.29 660.782 1354.13 654.222C1354.16 653.953 1354.21 653.697 1354.26 653.444C1355.26 647.169 1358.53 641.355 1363.91 637.387C1369.52 633.254 1376.36 631.885 1382.87 633.025C1383.14 633.067 1383.39 633.126 1383.65 633.196C1389.88 634.475 1395.77 638.048 1399.91 643.674ZM1719.58 890.977L1414.48 485.999L1202.56 640.265L1520.99 1079.4L1739.64 918.18L1719.58 890.977ZM1672.74 874.418C1664 880.861 1658.83 890.402 1657.52 900.605C1656.21 910.81 1658.77 921.705 1665.51 930.847C1668.37 934.72 1667.68 940.073 1663.98 942.798L1566.88 1014.4C1563.18 1017.13 1557.86 1016.2 1555.01 1012.33C1548.27 1003.19 1538.62 997.519 1528.49 995.752C1518.35 993.981 1507.71 996.107 1498.97 1002.55C1495.27 1005.28 1489.96 1004.35 1487.1 1000.48L1265.85 700.331C1263 696.459 1263.68 691.107 1267.38 688.378C1276.12 681.936 1281.3 672.395 1282.61 662.189C1283.91 651.985 1281.35 641.091 1274.61 631.947C1271.76 628.074 1272.44 622.722 1276.14 619.994L1373.25 548.391C1376.94 545.665 1382.26 546.593 1385.12 550.466C1391.86 559.61 1401.5 565.279 1411.64 567.046C1421.77 568.816 1432.42 566.689 1441.15 560.246C1444.85 557.521 1450.17 558.448 1453.02 562.319L1674.27 862.467C1677.13 866.337 1676.44 871.692 1672.74 874.418ZM1745.61 813.151C1697.08 781.989 1649.84 745.758 1579.13 670.455L1577.94 669.181L1572.36 663.207L1727.81 874.086L1780.82 835.001C1768.93 827.785 1757.43 820.732 1746.01 813.406L1745.61 813.151Z" fill="#82C38F"/>
<path fill-rule="evenodd" clip-rule="evenodd" d="M1510.19 777.416C1510.28 773.221 1509.44 768.784 1507.67 764.495L1509.54 763.114C1513.24 760.388 1513.92 755.032 1511.07 751.159C1508.21 747.287 1502.9 746.361 1499.2 749.088L1497.33 750.469C1493.75 747.506 1489.76 745.392 1485.73 744.234C1478.57 742.182 1471.25 743.051 1465.46 747.319C1449.9 758.79 1456.2 771.848 1462.5 784.902C1465.69 791.502 1468.87 798.103 1464.33 801.453C1462.78 802.594 1460.6 802.762 1458.34 802.115C1455.45 801.283 1452.49 799.198 1450.18 796.059C1447.86 792.923 1446.75 789.483 1446.81 786.466C1446.86 784.115 1447.66 782.087 1449.21 780.945C1452.91 778.217 1453.6 772.864 1450.75 768.992C1447.89 765.119 1442.57 764.193 1438.87 766.921C1433.08 771.191 1430.09 777.937 1429.93 785.378C1429.84 789.574 1430.69 794.016 1432.46 798.3L1430.58 799.683C1426.88 802.411 1426.2 807.761 1429.05 811.634C1431.91 815.507 1437.22 816.438 1440.92 813.71L1442.8 812.326C1446.37 815.291 1450.36 817.404 1454.39 818.561C1461.55 820.619 1468.88 819.749 1474.67 815.479C1490.22 804.014 1483.92 790.954 1477.62 777.898C1474.44 771.298 1471.25 764.696 1475.8 761.343C1477.34 760.204 1479.52 760.035 1481.78 760.682C1484.68 761.512 1487.63 763.599 1489.94 766.735C1492.26 769.874 1493.38 773.314 1493.31 776.331C1493.26 778.682 1492.46 780.711 1490.91 781.85C1487.21 784.578 1486.53 789.935 1489.38 793.807C1492.24 797.679 1497.55 798.604 1501.25 795.876C1507.04 791.606 1510.04 784.858 1510.19 777.416Z" fill="#82C38F"/>
<path d="M5687.85 2687.7C5670.16 2687.7 5651.31 2686.07 5631.29 2682.82C5611.74 2680.02 5593.13 2676.07 5575.44 2670.95L5598.48 2521.54C5607.32 2523.4 5617.1 2524.79 5627.8 2525.72C5638.51 2526.66 5647.82 2527.12 5655.73 2527.12C5685.05 2527.12 5710.42 2519.44 5731.83 2504.08C5753.24 2488.72 5768.83 2466.61 5778.61 2437.75L5795.36 2390.98L5542.62 1763.31L5449.77 1750.04V1627.17H5850.52V1750.04L5758.36 1764.01L5877.05 2097.04L5891.71 2138.23H5895.9L6036.24 1762.61L5946.17 1750.04V1627.17H6319.7V1750.04L6234.52 1761.91L5946.17 2495C5932.21 2529.91 5914.29 2561.8 5892.41 2590.66C5871 2619.98 5843.54 2643.48 5810.03 2661.17C5776.98 2678.86 5736.25 2687.7 5687.85 2687.7Z" fill="#080C09"/>
<path d="M5013.36 2382.61V2260.42L5111.8 2239.48V1437.27L5002.89 1416.32V1293.44H5315.67V2239.48L5414.12 2260.42V2382.61H5013.36Z" fill="#080C09"/>
<path d="M4468.82 2397.27C4408.78 2397.27 4357.11 2381.91 4313.83 2351.19C4271 2320 4238.19 2276.72 4215.38 2221.33C4192.58 2165.47 4181.17 2100.31 4181.17 2025.84V2011.17C4181.17 1931.58 4192.58 1862 4215.38 1802.42C4238.66 1742.84 4271.7 1696.53 4314.52 1663.48C4357.35 1629.97 4408.55 1613.21 4468.12 1613.21C4509.55 1613.21 4545.85 1621.59 4577.04 1638.34C4608.23 1654.64 4635.22 1677.91 4658.03 1708.16V1437.27L4549.11 1416.32V1293.44H4658.03H4861.9V2239.48L4959.64 2260.42V2382.61H4685.26L4669.9 2290.45C4646.16 2325.35 4617.77 2351.89 4584.72 2370.04C4552.14 2388.19 4513.51 2397.27 4468.82 2397.27ZM4529.56 2238.78C4557.96 2238.78 4582.86 2232.73 4604.27 2220.63C4625.68 2208.53 4643.6 2191.07 4658.03 2168.26V1847.8C4644.07 1823.6 4626.38 1804.98 4604.97 1791.94C4583.56 1778.45 4558.89 1771.7 4530.96 1771.7C4496.98 1771.7 4469.05 1781.94 4447.18 1802.42C4425.77 1822.43 4409.94 1850.36 4399.7 1886.2C4389.93 1922.04 4385.04 1963.7 4385.04 2011.17V2025.84C4385.04 2091.93 4396.21 2144.06 4418.55 2182.23C4440.89 2219.93 4477.9 2238.78 4529.56 2238.78Z" fill="#080C09"/>
<path d="M3265.86 2382.6V2260.42L3363.6 2239.48V1771L3255.38 1750.05V1627.17H3553.51L3562.58 1735.39C3587.72 1696.76 3618.67 1666.74 3655.44 1645.32C3692.68 1623.91 3735.03 1613.21 3782.51 1613.21C3857.45 1613.21 3916.09 1637.18 3958.45 1685.12C4000.81 1733.06 4021.98 1808.23 4021.98 1910.63V2239.48L4119.73 2260.42V2382.6H3730.15V2260.42L3817.42 2239.48V1911.33C3817.42 1860.6 3807.41 1824.76 3787.4 1803.81C3767.38 1782.4 3737.59 1771.7 3698.03 1771.7C3668.71 1771.7 3643.11 1777.98 3621.23 1790.55C3599.82 1802.65 3581.9 1820.1 3567.47 1842.91V2239.48L3649.85 2260.42V2382.6H3265.86Z" fill="#080C09"/>
<path d="M2882.51 2397.27C2810.37 2397.27 2747.3 2381.44 2693.31 2349.79C2639.31 2317.67 2597.42 2273.69 2567.63 2217.83C2538.31 2161.98 2523.65 2098.21 2523.65 2026.53V1998.6C2523.65 1923.67 2537.61 1857.34 2565.54 1799.62C2593.47 1741.44 2632.8 1695.83 2683.53 1662.78C2734.73 1629.73 2795.01 1613.21 2864.36 1613.21C2932.78 1613.21 2990.27 1626.71 3036.81 1653.7C3083.36 1680.7 3118.73 1719.56 3142.93 1770.3C3167.14 1821.03 3179.24 1882.47 3179.24 1954.62V2065.63H2735.2L2733.8 2069.82C2736.59 2102.87 2744.74 2132.42 2758.24 2158.49C2772.2 2184.09 2791.75 2204.33 2816.88 2219.23C2842.02 2233.66 2872.51 2240.87 2908.35 2240.87C2945.58 2240.87 2980.26 2236.22 3012.37 2226.91C3044.96 2217.13 3076.61 2202.94 3107.33 2184.32L3162.48 2309.99C3131.3 2335.13 3091.97 2356.07 3044.49 2372.83C2997.48 2389.12 2943.49 2397.27 2882.51 2397.27ZM2736.59 1930.88H2988.64V1912.73C2988.64 1882.01 2984.45 1855.71 2976.07 1833.83C2968.16 1811.49 2955.12 1794.27 2936.97 1782.17C2919.28 1770.07 2896.24 1764.02 2867.85 1764.02C2840.86 1764.02 2818.05 1771.23 2799.43 1785.66C2780.81 1799.62 2766.15 1818.94 2755.44 1843.61C2745.2 1868.28 2738.22 1896.2 2734.5 1927.39L2736.59 1930.88Z" fill="#080C09"/>
<path d="M1640.48 2673.05V2550.17L1738.92 2529.22V1771L1630.01 1750.05V1627.17H1926.03L1935.81 1715.14C1958.15 1682.56 1985.15 1657.43 2016.8 1639.74C2048.45 1622.05 2086.15 1613.21 2129.9 1613.21C2190.88 1613.21 2243.01 1629.96 2286.3 1663.48C2329.58 1696.52 2362.63 1742.84 2385.44 1802.42C2408.71 1861.99 2420.35 1931.58 2420.35 2011.17V2025.83C2420.35 2100.31 2408.71 2165.47 2385.44 2221.32C2362.63 2276.71 2329.35 2320 2285.6 2351.19C2242.31 2381.91 2189.95 2397.27 2128.51 2397.27C2088.01 2397.27 2052.17 2390.05 2020.99 2375.62C1990.27 2360.73 1963.97 2339.08 1942.09 2310.69V2529.22L2040.54 2550.17V2673.05H1640.48ZM2067.76 2240.87C2119.9 2240.87 2157.6 2221.56 2180.87 2182.92C2204.61 2144.29 2216.48 2091.93 2216.48 2025.83V2011.17C2216.48 1963.23 2211.12 1921.57 2200.42 1886.2C2189.71 1850.36 2173.19 1822.43 2150.85 1802.42C2128.97 1781.94 2100.81 1771.7 2066.37 1771.7C2038.44 1771.7 2013.77 1777.98 1992.36 1790.55C1971.42 1803.11 1954.66 1821.03 1942.09 1844.31V2175.24C1954.66 2196.65 1971.42 2212.95 1992.36 2224.12C2013.77 2235.29 2038.91 2240.87 2067.76 2240.87Z" fill="#080C09"/>
</svg>
